<svg width="52" height="52" viewBox="0 0 52 52" fill="none" xmlns="http://www.w3.org/2000/svg">
<rect x="0.5" y="0.5" width="51" height="51" rx="11.5" fill="white" stroke="#E6E6E6"/>
<path fill-rule="evenodd" clip-rule="evenodd" d="M27.1362 15.3082L18.1362 17.5582C17.4684 17.7252 17 18.3251 17 19.0134V38H29V23V20V16.7634C29 15.7876 28.0829 15.0716 27.1362 15.3082ZM32 23V38H35V24.5C35 23.6715 34.3284 23 33.5 23H32ZM38 41H39.5C40.3284 41 41 40.3284 41 39.5C41 38.6715 40.3284 38 39.5 38H38V24.5C38 22.0147 35.9853 20 33.5 20H32V16.7634C32 13.8359 29.2488 11.6878 26.4086 12.3978L17.4086 14.6478C15.4053 15.1486 14 16.9485 14 19.0134V38H12.5C11.6716 38 11 38.6715 11 39.5C11 40.3284 11.6716 41 12.5 41H14H17H29H32H35H38Z" fill="#3258E8"/>
<path fill-rule="evenodd" clip-rule="evenodd" d="M20 33.5C20 32.6716 20.6716 32 21.5 32H24.5C25.3284 32 26 32.6716 26 33.5C26 34.3284 25.3284 35 24.5 35H21.5C20.6716 35 20 34.3284 20 33.5Z" fill="#3258E8"/>
<path fill-rule="evenodd" clip-rule="evenodd" d="M20 27.5C20 26.6716 20.6716 26 21.5 26H24.5C25.3284 26 26 26.6716 26 27.5C26 28.3284 25.3284 29 24.5 29H21.5C20.6716 29 20 28.3284 20 27.5Z" fill="#3258E8"/>
<path fill-rule="evenodd" clip-rule="evenodd" d="M20 21.5C20 20.6716 20.6716 20 21.5 20H24.5C25.3284 20 26 20.6716 26 21.5C26 22.3284 25.3284 23 24.5 23H21.5C20.6716 23 20 22.3284 20 21.5Z" fill="#3258E8"/>
</svg>
