<svg width="65" height="64" viewBox="0 0 65 64" fill="none" xmlns="http://www.w3.org/2000/svg">
<rect x="0.5" width="64" height="64" rx="12" fill="#FAFAFA"/>
<path fill-rule="evenodd" clip-rule="evenodd" d="M14.8529 12C13.5534 12 12.5 12.9949 12.5 14.2222V51C12.5 51.5523 12.9477 52 13.5 52H19.1145C19.3599 52 19.5588 51.8011 19.5588 51.5557V44.2222C19.5588 43.6086 20.0855 43.1111 20.7353 43.1111H25.4412C26.0909 43.1111 26.6176 43.6086 26.6176 44.2222V51.5557C26.6176 51.8011 26.8166 52 27.062 52H33.6765V14.2222C33.6765 12.9949 32.623 12 31.3235 12H14.8529ZM17.2059 17.5556C17.2059 16.9419 17.7326 16.4444 18.3824 16.4444H20.7353C21.385 16.4444 21.9118 16.9419 21.9118 17.5556V19.7778C21.9118 20.3914 21.385 20.8889 20.7353 20.8889H18.3824C17.7326 20.8889 17.2059 20.3914 17.2059 19.7778V17.5556ZM18.3824 23.1111C17.7326 23.1111 17.2059 23.6086 17.2059 24.2222V26.4444C17.2059 27.0581 17.7326 27.5556 18.3824 27.5556H20.7353C21.385 27.5556 21.9118 27.0581 21.9118 26.4444V24.2222C21.9118 23.6086 21.385 23.1111 20.7353 23.1111H18.3824ZM17.2059 30.8889C17.2059 30.2752 17.7326 29.7778 18.3824 29.7778H20.7353C21.385 29.7778 21.9118 30.2752 21.9118 30.8889V33.1111C21.9118 33.7248 21.385 34.2222 20.7353 34.2222H18.3824C17.7326 34.2222 17.2059 33.7248 17.2059 33.1111V30.8889ZM25.4412 16.4444C24.7914 16.4444 24.2647 16.9419 24.2647 17.5556V19.7778C24.2647 20.3914 24.7914 20.8889 25.4412 20.8889H27.7941C28.4439 20.8889 28.9706 20.3914 28.9706 19.7778V17.5556C28.9706 16.9419 28.4439 16.4444 27.7941 16.4444H25.4412ZM24.2647 24.2222C24.2647 23.6086 24.7914 23.1111 25.4412 23.1111H27.7941C28.4439 23.1111 28.9706 23.6086 28.9706 24.2222V26.4444C28.9706 27.0581 28.4439 27.5556 27.7941 27.5556H25.4412C24.7914 27.5556 24.2647 27.0581 24.2647 26.4444V24.2222ZM25.4412 29.7778C24.7914 29.7778 24.2647 30.2752 24.2647 30.8889V33.1111C24.2647 33.7248 24.7914 34.2222 25.4412 34.2222H27.7941C28.4439 34.2222 28.9706 33.7248 28.9706 33.1111V30.8889C28.9706 30.2752 28.4439 29.7778 27.7941 29.7778H25.4412Z" fill="#3258E8"/>
<path fill-rule="evenodd" clip-rule="evenodd" d="M50.1405 16.7061H33.6763V51.993H39.112C39.3574 51.993 39.5563 51.7941 39.5563 51.5487V45.3767C39.5563 44.7677 40.0829 44.274 40.7324 44.274H45.4364C46.0859 44.274 46.6124 44.7677 46.6124 45.3767V51.5487C46.6124 51.7941 46.8114 51.993 47.0567 51.993H50.1405C52.7546 51.993 52.4925 52.2434 52.4925 49.7876V18.9115C52.4925 17.6935 51.4394 16.7061 50.1405 16.7061ZM38.3803 20.0142C37.7308 20.0142 37.2043 20.5079 37.2043 21.1169V23.3224C37.2043 23.9314 37.7308 24.4251 38.3803 24.4251H40.7324C41.3818 24.4251 41.9084 23.9314 41.9084 23.3224V21.1169C41.9084 20.5079 41.3818 20.0142 40.7324 20.0142H38.3803ZM37.2043 27.7332C37.2043 27.1242 37.7308 26.6305 38.3803 26.6305H40.7324C41.3818 26.6305 41.9084 27.1242 41.9084 27.7332V29.9387C41.9084 30.5477 41.3818 31.0414 40.7324 31.0414H38.3803C37.7308 31.0414 37.2043 30.5477 37.2043 29.9387V27.7332ZM38.3803 33.2468C37.7308 33.2468 37.2043 33.7405 37.2043 34.3495V36.555C37.2043 37.164 37.7308 37.6577 38.3803 37.6577H40.7324C41.3818 37.6577 41.9084 37.164 41.9084 36.555V34.3495C41.9084 33.7405 41.3818 33.2468 40.7324 33.2468H38.3803ZM45.4364 20.0142C44.7869 20.0142 44.2604 20.5079 44.2604 21.1169V23.3224C44.2604 23.9314 44.7869 24.4251 45.4364 24.4251H47.7884C48.4379 24.4251 48.9644 23.9314 48.9644 23.3224V21.1169C48.9644 20.5079 48.4379 20.0142 47.7884 20.0142H45.4364ZM44.2604 27.7332C44.2604 27.1242 44.7869 26.6305 45.4364 26.6305H47.7884C48.4379 26.6305 48.9644 27.1242 48.9644 27.7332V29.9387C48.9644 30.5477 48.4379 31.0414 47.7884 31.0414H45.4364C44.7869 31.0414 44.2604 30.5477 44.2604 29.9387V27.7332ZM45.4364 33.2468C44.7869 33.2468 44.2604 33.7405 44.2604 34.3495V36.555C44.2604 37.164 44.7869 37.6577 45.4364 37.6577H47.7884C48.4379 37.6577 48.9644 37.164 48.9644 36.555V34.3495C48.9644 33.7405 48.4379 33.2468 47.7884 33.2468H45.4364Z" fill="#FEB137"/>
</svg>
