<svg width="16" height="16" viewBox="0 0 16 16" fill="none" xmlns="http://www.w3.org/2000/svg">
<path d="M8.03216 0C3.64221 0 0.0643217 3.56 0.0643217 7.928C0.0643217 9.328 0.434171 10.688 1.12563 11.888L0 16L4.22111 14.896C5.38693 15.528 6.69749 15.864 8.03216 15.864C12.4221 15.864 16 12.304 16 7.936C16 5.816 15.1719 3.824 13.6683 2.328C12.1648 0.824 10.1628 0 8.03216 0ZM8.0402 1.336C9.80904 1.336 11.4653 2.024 12.7196 3.272C13.9658 4.52 14.6573 6.176 14.6573 7.936C14.6573 11.568 11.6824 14.52 8.03216 14.52C6.84221 14.52 5.67638 14.208 4.66332 13.6L4.42211 13.464L1.91357 14.12L2.5809 11.688L2.4201 11.432C1.7608 10.4 1.40704 9.176 1.40704 7.928C1.41508 4.296 4.38191 1.336 8.0402 1.336ZM5.21005 4.264C5.08141 4.264 4.86432 4.312 4.6794 4.512C4.50251 4.712 3.9799 5.2 3.9799 6.168C3.9799 7.144 4.69548 8.08 4.78392 8.216C4.89648 8.352 6.19899 10.352 8.201 11.2C8.67538 11.416 9.04523 11.536 9.33467 11.624C9.80904 11.776 10.2432 11.752 10.5889 11.704C10.9749 11.648 11.7628 11.224 11.9317 10.76C12.1005 10.296 12.1005 9.904 12.0523 9.816C11.996 9.736 11.8673 9.688 11.6663 9.6C11.4653 9.488 10.4844 9.008 10.3075 8.944C10.1226 8.88 10.01 8.848 9.85729 9.04C9.72864 9.24 9.34271 9.688 9.23015 9.816C9.10955 9.952 8.99698 9.968 8.80402 9.872C8.59497 9.768 7.95176 9.56 7.19598 8.888C6.601 8.36 6.20703 7.712 6.08643 7.512C5.98995 7.32 6.07839 7.2 6.17487 7.112C6.26332 7.024 6.39196 6.88 6.47236 6.76C6.57688 6.648 6.60904 6.56 6.67337 6.432C6.73769 6.296 6.70553 6.184 6.65729 6.088C6.60904 6 6.20704 5.008 6.03819 4.616C5.87739 4.232 5.71658 4.28 5.58794 4.272C5.47538 4.272 5.34673 4.264 5.21005 4.264Z" fill="#232631"/>
</svg>
