<svg width="65" height="64" viewBox="0 0 65 64" fill="none" xmlns="http://www.w3.org/2000/svg">
<rect x="0.5" width="64" height="64" rx="12" fill="#FAFAFA"/>
<circle cx="28.5339" cy="18.0002" r="6.3" fill="#FEB137"/>
<circle cx="28.5337" cy="18" r="8.5" stroke="#FEB137"/>
<path d="M28.927 15.5C27.4563 15.5 26.264 16.6922 26.264 18.1629V31.4775V37.691L21.5234 32.9504C20.6783 32.1053 19.3404 32.0102 18.3842 32.7273C17.3377 33.5122 17.1118 34.9902 17.8762 36.0518L24.4888 45.236C24.4888 45.236 24.9326 47.4551 30.2584 49.6742V54.1124C30.2584 54.6026 30.6558 55 31.1461 55H34.2528H37.3596H39.5787H44.9045C45.3947 55 45.7921 54.6026 45.7921 54.1124V49.6742C46.6798 47.4551 47.5674 45.236 47.5674 42.573V29.7022C47.5674 28.2316 46.3752 27.0393 44.9045 27.0393C43.4338 27.0393 42.2416 28.2316 42.2416 29.7022V27.927C42.2416 26.4563 41.0493 25.264 39.5787 25.264C38.108 25.264 36.9157 26.4563 36.9157 27.927V27.0393C36.9157 25.5686 35.7235 24.3764 34.2528 24.3764C32.7821 24.3764 31.5899 25.5686 31.5899 27.0393V18.1629C31.5899 16.6922 30.3977 15.5 28.927 15.5Z" fill="#3258E8"/>
</svg>
