<svg width="65" height="64" viewBox="0 0 65 64" fill="none" xmlns="http://www.w3.org/2000/svg">
<rect x="0.5" width="64" height="64" rx="12" fill="#FAFAFA"/>
<g clip-path="url(#clip0_96_360)">
<path d="M19 26H46V47H19V26Z" fill="#FEB137"/>
<path d="M27 29.65H23.3333V33.35H27V29.65ZM34.3333 29.65H30.6667V33.35H34.3333V29.65ZM41.6667 29.65H38V33.35H41.6667V29.65ZM45.3333 16.7H43.5V13H39.8333V16.7H25.1667V13H21.5V16.7H19.6667C17.6317 16.7 16.0183 18.365 16.0183 20.4L16 46.3C16 48.335 17.6317 50 19.6667 50H45.3333C47.35 50 49 48.335 49 46.3V20.4C49 18.365 47.35 16.7 45.3333 16.7ZM45.3333 46.3H19.6667V25.95H45.3333V46.3Z" fill="#3258E8"/>
</g>
<defs>
<clipPath id="clip0_96_360">
<rect width="46" height="46" fill="white" transform="translate(10 9)"/>
</clipPath>
</defs>
</svg>
