<svg width="401" height="355" viewBox="0 0 401 355" fill="none" xmlns="http://www.w3.org/2000/svg">
<path d="M206.437 351.374L393.202 241C399.145 237.66 404.251 232.181 398.449 228.584L211.014 120.568C208.203 118.828 203.936 117.68 201.074 119.344L5.02657 233.096C-0.91699 236.552 -1.98709 246.195 3.96936 249.651L181.889 351.181C185.614 353.338 189.834 354.489 194.138 354.523C198.441 354.557 202.68 353.472 206.437 351.374Z" fill="#8170D6"/>
<path opacity="0.32" d="M42.0285 263.175L79.843 241.425L48.346 229.551L13.5742 248.568C22.7488 254.019 32.2517 258.897 42.0285 263.175Z" fill="url(#paint0_linear_41_850)"/>
<path d="M43.6401 212.932V236.294H81.4288V212.932" fill="#F8997C"/>
<path d="M62.5409 222.228C72.9795 222.228 81.4417 218.066 81.4417 212.932C81.4417 207.798 72.9795 203.636 62.5409 203.636C52.1023 203.636 43.6401 207.798 43.6401 212.932C43.6401 218.066 52.1023 222.228 62.5409 222.228Z" fill="#DD654A"/>
<path d="M62.5409 246.492C72.9795 246.492 81.4417 242.33 81.4417 237.196C81.4417 232.062 72.9795 227.901 62.5409 227.901C52.1023 227.901 43.6401 232.062 43.6401 237.196C43.6401 242.33 52.1023 246.492 62.5409 246.492Z" fill="#F8997C"/>
<path d="M83.6984 158.615C79.7146 156.991 74.1836 151.55 69.3617 151.717C67.4922 156.23 66.9765 161.49 66.435 166.054C65.5197 173.997 65.3385 182.007 65.8935 189.983C66.0053 191.762 66.1514 193.533 66.3319 195.295C66.3804 195.815 66.5246 196.322 66.7574 196.79C66.7574 202.953 66.7574 209.116 66.7574 215.279C66.7783 215.419 66.849 215.548 66.9567 215.641C67.0643 215.733 67.2018 215.785 67.344 215.785C67.4862 215.785 67.6236 215.733 67.7313 215.641C67.839 215.548 67.9097 215.419 67.9306 215.279C67.9306 209.348 67.9306 203.417 67.9306 197.487C69.8248 196.862 71.6416 196.022 73.3456 194.985C76.9013 192.758 79.5896 189.383 80.9652 185.419C84.0208 176.923 82.0868 167.447 84.9877 159.04C84.5365 158.937 84.111 158.796 83.6984 158.615Z" fill="#297600"/>
<path d="M75.5246 144.704C73.2487 146.026 71.3663 147.931 70.0709 150.222C69.7335 150.738 69.4484 151.287 69.22 151.859L69.0524 152.22C68.6913 153.176 68.3899 154.154 68.1499 155.147C68.6067 154.393 69.3211 153.829 70.1612 153.561C71.154 153.122 72.2627 153.018 73.3199 153.265C74.343 153.659 75.3131 154.178 76.2079 154.812C77.4971 155.624 78.8509 156.539 80.1917 157.39C86.4576 161.374 94.7863 161.774 99.6211 155.985C99.6211 155.753 99.7372 155.521 99.7887 155.289C100.549 151.331 89.4101 136.659 75.5246 144.704Z" fill="#5FAD00"/>
<path d="M96.9007 158.448C97.1586 158.267 97.4164 158.099 97.6872 157.932C97.6976 157.85 97.689 157.766 97.6622 157.688C97.6354 157.61 97.591 157.539 97.5325 157.481C93.742 153.613 89.6808 149.745 84.5108 147.863C80.8131 146.458 76.8085 146.062 72.9073 146.715C72.4819 147.205 72.108 147.721 71.7212 148.236C75.9371 146.831 81.2618 147.708 85.091 149.345C89.6679 151.292 93.3037 154.786 96.6945 158.306C96.7518 158.368 96.8223 158.416 96.9007 158.448Z" fill="#297600"/>
<path d="M33.4681 166.918C30.737 168.342 28.4823 170.533 26.9817 173.223C25.4811 175.912 24.8004 178.982 25.0234 182.054C25.4746 193.206 43.8468 182.312 48.7202 172.913C53.5937 163.514 54.3673 176.923 54.3673 176.923" fill="#297600"/>
<path d="M49.9965 163.024C46.5441 162.965 43.1035 163.443 39.7983 164.443C37.5799 164.972 35.4453 165.805 33.4551 166.918C34.6101 167.695 35.8412 168.351 37.1295 168.878C39.4373 169.806 41.8483 170.966 43.0602 173.132C43.3561 173.664 43.5938 174.226 43.7693 174.808C44.891 178.47 43.924 182.931 45.4324 186.618C46.9409 190.306 50.0223 193.567 54.3542 193.825C59.5113 194.135 61.8965 189.171 62.9279 184.865C63.9593 180.559 65.3518 174.692 63.7144 170.27C61.8191 165.113 54.8957 163.257 49.9965 163.024Z" fill="#5FAD00"/>
<path d="M56.8164 180.43C54.6504 173.39 50.0348 166.737 43.2919 163.669H42.9954L42.673 163.772L41.4482 164.082C49.2999 166.995 54.2378 174.744 56.2491 182.647C58.8277 192.768 57.951 203.727 57.9768 214.067C57.9768 214.21 58.0338 214.348 58.1353 214.45C58.2369 214.551 58.3746 214.608 58.5182 214.608C58.6619 214.608 58.7996 214.551 58.9011 214.45C59.0027 214.348 59.0597 214.21 59.0597 214.067C59.0855 202.992 60.1169 191.131 56.8164 180.43Z" fill="#297600"/>
<path d="M338.356 215.91C337.631 215.913 336.914 215.759 336.254 215.459L335.932 217.574L369.995 218.45V215.872L338.356 215.91Z" fill="#EF8A3F"/>
<path d="M336.242 215.536L335.932 217.573L354.743 228.429V225.851C348.399 222.782 342.288 219.185 336.242 215.536Z" fill="#EF8A3F"/>
<path d="M355.233 68.688C354.119 68.8778 352.974 68.7155 351.958 68.2239L330.388 234.708C331.677 235.507 333.057 236.216 334.385 236.977L356.212 68.572L355.233 68.688Z" fill="#EF8A3F"/>
<path d="M360.158 68.4946C359.374 68.5802 358.583 68.5802 357.799 68.4946C357.167 68.4946 356.509 68.4946 355.903 68.5849L370.472 239.324C371.592 238.776 372.742 238.29 373.915 237.867L374.482 237.57H374.585L360.158 68.4946Z" fill="#EF8A3F"/>
<path d="M357.837 68.5076C356.975 68.5109 356.113 68.5712 355.259 68.6881C354.92 68.7149 354.579 68.7149 354.24 68.6881L352.822 249.187C353.554 248.928 354.34 248.866 355.104 249.006H356.393L357.115 248.929L358.533 68.572L357.837 68.5076Z" fill="#EF8A3F"/>
<path d="M334.295 71.3828V108.669C334.295 108.669 377.202 109.958 377.202 108.669V71.3828" fill="#FF6753"/>
<path d="M355.748 81.2459C367.597 81.2459 377.202 76.7954 377.202 71.3056C377.202 65.8157 367.597 61.3652 355.748 61.3652C343.9 61.3652 334.295 65.8157 334.295 71.3056C334.295 76.7954 343.9 81.2459 355.748 81.2459Z" fill="#D64338"/>
<path d="M355.748 119.176C367.597 119.176 377.202 114.726 377.202 109.236C377.202 103.746 367.597 99.2954 355.748 99.2954C343.9 99.2954 334.295 103.746 334.295 109.236C334.295 114.726 343.9 119.176 355.748 119.176Z" fill="#FF6753"/>
<path opacity="0.32" d="M372.174 238.64L310.353 274.199L284.954 257.219L330.388 234.708" fill="url(#paint1_linear_41_850)"/>
<path style="mix-blend-mode:multiply" d="M235.781 311.807C228.589 306.311 220.897 301.503 212.806 297.444C201.834 303.89 196.858 307.758 179.968 317.351C192.745 325.086 202.647 332.255 204.091 333.105L225.815 319.787C226.073 318.962 235.588 312.645 235.781 311.807Z" fill="url(#paint2_linear_41_850)"/>
<path d="M161.841 179.798L258.214 235.159V61.6872C258.214 61.6872 258.91 53.1651 252.348 52.3528L161.841 17.7874V179.798Z" fill="#3258E8"/>
<path opacity="0.14" d="M161.841 179.798L258.214 235.159V61.6872C258.214 61.6872 258.91 53.1651 252.348 52.3528L161.841 17.7874V179.798Z" fill="black"/>
<path d="M243.594 75.8049C243.594 75.8049 241.905 56.4658 255.726 54.1579L162.641 0.756162C162.641 0.756162 155.962 -2.19628 152.017 3.56678C148.072 9.32984 147.801 15.7891 148.226 20.5723L243.594 75.8049Z" fill="#3258E8"/>
<path d="M175.791 143.917L237.445 179.024C237.773 179.178 238.147 179.204 238.494 179.096C238.841 178.989 239.135 178.756 239.318 178.443C239.502 178.13 239.563 177.76 239.488 177.405C239.413 177.05 239.209 176.735 238.914 176.523L177.261 141.416C176.933 141.262 176.558 141.237 176.212 141.344C175.865 141.452 175.571 141.685 175.387 141.998C175.203 142.31 175.143 142.681 175.218 143.036C175.292 143.391 175.497 143.705 175.791 143.917Z" fill="#F2F2F2"/>
<path d="M175.791 153.032L237.444 188.139C237.773 188.293 238.147 188.319 238.494 188.211C238.84 188.104 239.134 187.871 239.318 187.558C239.502 187.245 239.562 186.875 239.488 186.52C239.413 186.165 239.208 185.85 238.914 185.638L177.222 150.583C176.908 150.486 176.57 150.498 176.264 150.618C175.958 150.737 175.701 150.957 175.535 151.24C175.37 151.524 175.305 151.856 175.351 152.181C175.397 152.506 175.552 152.806 175.791 153.032Z" fill="#F2F2F2"/>
<path d="M175.791 162.302L237.445 197.409C237.773 197.563 238.147 197.589 238.494 197.482C238.841 197.374 239.135 197.141 239.318 196.828C239.502 196.515 239.563 196.145 239.488 195.79C239.413 195.435 239.209 195.12 238.914 194.908L177.261 159.801C176.933 159.647 176.558 159.622 176.212 159.729C175.865 159.837 175.571 160.07 175.387 160.383C175.203 160.695 175.143 161.066 175.218 161.421C175.292 161.776 175.497 162.09 175.791 162.302Z" fill="#F2F2F2"/>
<path d="M174.244 109.648L235.897 144.755C236.226 144.909 236.6 144.935 236.946 144.827C237.293 144.72 237.587 144.487 237.771 144.174C237.955 143.861 238.015 143.491 237.94 143.136C237.866 142.781 237.661 142.466 237.367 142.254L175.701 107.147C175.372 106.993 174.998 106.968 174.651 107.075C174.305 107.183 174.011 107.416 173.827 107.729C173.643 108.041 173.582 108.412 173.657 108.767C173.732 109.122 173.936 109.436 174.231 109.648H174.244Z" fill="#F2F2F2"/>
<path d="M174.244 118.763L235.897 153.87C236.226 154.024 236.6 154.05 236.947 153.942C237.293 153.835 237.587 153.602 237.771 153.289C237.955 152.976 238.015 152.606 237.941 152.251C237.866 151.896 237.661 151.581 237.367 151.369L175.714 116.262C175.385 116.108 175.011 116.083 174.664 116.19C174.318 116.298 174.024 116.531 173.84 116.844C173.656 117.156 173.596 117.527 173.67 117.882C173.745 118.237 173.95 118.551 174.244 118.763Z" fill="#F2F2F2"/>
<path d="M174.244 128.033L235.897 163.14C236.226 163.294 236.6 163.32 236.947 163.212C237.293 163.105 237.587 162.872 237.771 162.559C237.955 162.246 238.015 161.876 237.941 161.521C237.866 161.166 237.661 160.851 237.367 160.639L175.714 125.532C175.385 125.378 175.011 125.353 174.664 125.46C174.318 125.568 174.024 125.801 173.84 126.114C173.656 126.426 173.596 126.797 173.67 127.152C173.745 127.507 173.95 127.821 174.244 128.033Z" fill="#F2F2F2"/>
<path d="M212.449 113.812C221.52 111.167 225.875 98.7425 222.177 86.0624C218.479 73.3823 208.127 65.2477 199.056 67.8934C189.985 70.5391 185.63 82.9631 189.328 95.6433C193.027 108.323 203.378 116.458 212.449 113.812Z" fill="white"/>
<path d="M194.06 89.4842L199.875 101.784C200.571 103.241 202.453 102.815 203.214 101.784L216.403 84.572C217.912 82.5994 214.56 80.7042 213.064 82.6252L199.875 99.837H203.214L197.399 87.5373C196.342 85.294 193.003 87.2537 194.06 89.4842Z" fill="#5FAD00"/>
<path d="M213.181 116.389C223.394 113.411 228.298 99.4255 224.135 85.1526C219.972 70.8798 208.319 61.724 198.106 64.7026C187.894 67.6813 182.989 81.6664 187.152 95.9392C191.315 110.212 202.969 119.368 213.181 116.389Z" stroke="#F2F2F2" stroke-width="1.015" stroke-miterlimit="10"/>
<path d="M199.526 131.785C198.729 129.651 198.041 127.478 197.464 125.275C197.206 123.715 198.753 117.784 197.67 117.449C196.587 117.113 195.233 121.136 195.233 121.136C195.233 121.136 192.01 113.865 191.133 113.516C190.257 113.168 187.639 112.936 187.008 113.594C186.376 114.251 184.635 118.493 185.409 119.937C187.083 122.511 188.9 124.991 190.85 127.363C191.133 127.582 194.524 134.88 194.975 135.099C195.427 135.318 199.191 133.423 199.526 131.785Z" fill="#FFC9B5"/>
<path d="M234.892 155.315C234.892 155.315 217.177 148.314 214.096 145.774C211.014 143.234 199.914 130.148 199.914 130.148C199.914 130.148 193.467 132.507 193.545 135.743C193.545 135.743 202.57 150.815 206.76 154.85C210.95 158.886 226.241 169.033 229.593 168.8C232.945 168.568 234.892 155.315 234.892 155.315Z" fill="#DD8C2A"/>
<path d="M223.585 298.695C223.585 298.695 219.356 295.085 214.56 296.477C209.764 297.87 210.795 301.428 213.786 303.658C216.777 305.889 228.291 313.637 231.836 313.56C235.382 313.483 236.155 310.633 236.232 308.674C236.036 305.65 235.687 302.638 235.188 299.649" fill="#768CFB"/>
<path d="M226.228 298.437C226.21 298.569 226.164 298.696 226.091 298.808C226.019 298.92 225.922 299.015 225.809 299.085C225.695 299.155 225.568 299.199 225.435 299.214C225.302 299.229 225.168 299.215 225.042 299.172C223.756 298.764 222.494 298.282 221.264 297.728C221.264 297.728 217.177 297.728 219.666 301.815C222.154 305.902 230.728 307.101 233.371 305.579C236.014 304.058 234.247 299.726 234.247 299.726" fill="#FFC9B5"/>
<path d="M213.632 306.663C213.632 306.663 209.403 303.053 204.607 304.445C199.811 305.837 200.842 309.396 203.833 311.626C206.824 313.857 218.337 321.605 221.883 321.528C225.428 321.451 226.202 318.601 226.279 316.642C226.083 313.618 225.734 310.606 225.235 307.617" fill="#768CFB"/>
<path d="M216.261 306.405C216.244 306.537 216.197 306.664 216.124 306.776C216.052 306.888 215.955 306.982 215.842 307.053C215.729 307.123 215.601 307.167 215.468 307.182C215.336 307.197 215.201 307.183 215.075 307.14C213.789 306.732 212.527 306.25 211.297 305.696C211.297 305.696 207.211 305.696 209.699 309.783C212.187 313.87 220.761 315.069 223.404 313.547C226.047 312.026 224.281 307.694 224.281 307.694" fill="#FFC9B5"/>
<path d="M211.827 195.192C210.447 198.312 209.699 242.985 210.228 254.498C210.757 266.012 216.262 306.443 216.262 306.443C216.262 306.443 219.395 311.201 224.681 310.865C229.967 310.53 228.935 306.276 228.935 306.276C228.935 306.276 235.691 309.409 238.644 302.524C239.74 299.945 244.884 228.764 244.884 220.655C244.707 210.964 242.044 201.481 237.148 193.116" fill="#53B7B7"/>
<path d="M228.948 306.237C228.948 306.237 232.158 215.988 231.745 213.319C231.333 210.65 232.622 233.109 232.532 239.246C232.519 243.63 229.812 300.139 228.948 306.237Z" fill="#259993"/>
<path d="M211.827 195.192C211.827 195.192 207.159 163.231 213.799 157.197C220.439 151.163 238.888 146.883 242.331 149.887C245.773 152.891 240.603 186.786 237.174 193.077C233.744 199.369 214.276 197.654 211.827 195.192Z" fill="#F9AA43"/>
<path d="M220.232 133.693C220.078 134.145 216.803 146.586 222.514 148.391C228.226 150.196 229.373 143.376 229.941 142.989C230.508 142.602 232.3 141.996 232.21 140.617C232.12 139.237 229.954 139.211 229.954 139.211C229.954 139.211 229.116 135.601 226.55 134.054C223.984 132.507 220.232 133.693 220.232 133.693Z" fill="#FFC9B5"/>
<path d="M225.558 137.2C225.558 137.2 220.787 137.278 218.724 135.241C218.338 134.843 218.039 134.369 217.845 133.849C217.651 133.329 217.568 132.775 217.599 132.221C217.631 131.667 217.777 131.126 218.028 130.632C218.28 130.137 218.631 129.7 219.06 129.349C219.06 129.349 217.164 125.571 220.723 124.656C220.723 124.656 221.045 121.188 228.136 122.773C235.227 124.359 241.699 129.374 241.79 135.859C241.88 142.345 242.357 143.092 244.652 144.575C246.947 146.058 246.315 151.743 240.178 151.975C234.041 152.207 225.674 151.666 224.887 148.636C224.101 145.606 228.755 145.284 229.335 142.19C229.415 141.614 229.381 141.028 229.234 140.466C229.088 139.903 228.832 139.375 228.481 138.912C228.13 138.449 227.691 138.059 227.189 137.765C226.688 137.471 226.133 137.28 225.558 137.2Z" fill="#2C1D1A"/>
<path d="M202.608 190.55C202.608 190.55 197.695 195.785 196.277 196.352C194.106 197.345 192.019 198.514 190.037 199.846C190.695 200.435 191.28 201.102 191.778 201.831C191.779 201.857 191.779 201.883 191.778 201.909C192.409 201.458 192.848 201.122 192.835 201.354C192.835 202.089 188 208.381 187.265 209.335C186.53 210.289 188.554 213.409 188.554 213.409C191.675 214.453 195.272 211.295 197.579 209.155C199.887 207.014 200.957 202.064 201.757 201.419C202.556 200.774 209.144 196.429 209.608 195.076C210.072 193.722 202.608 190.55 202.608 190.55Z" fill="#FFC9B5"/>
<path d="M212.277 159.479C210.988 162.328 210.988 165.448 210.447 168.504C210.021 170.683 209.583 172.965 209.08 175.169C208.737 177.417 208.032 179.594 206.991 181.616C205.186 184.62 202.84 187.224 200.79 190.048C200.22 190.661 199.809 191.405 199.591 192.214C199.398 194.186 201.886 199.807 208.783 199.111C212.269 196.294 215.528 193.208 218.53 189.88C222.398 185.329 226.06 169.935 225.686 164.816C225.428 161.335 223.533 157.442 220.232 155.92C219.138 155.475 217.933 155.375 216.78 155.636C215.627 155.896 214.582 156.504 213.786 157.377C213.169 157.988 212.659 158.699 212.277 159.479Z" fill="#F9AA43"/>
<path d="M212.664 195.707C212.664 195.707 218.427 190.808 219.845 187.856C221.264 184.903 223.107 179.592 223.107 179.592C223.107 179.592 220.438 194.947 217.886 196.997C216.11 196.727 214.362 196.295 212.664 195.707Z" fill="#DD8C2A"/>
<defs>
<linearGradient id="paint0_linear_41_850" x1="27.9754" y1="271.646" x2="46.0382" y2="245.964" gradientUnits="userSpaceOnUse">
<stop stop-color="white" stop-opacity="0"/>
<stop offset="1" stop-color="#D43500"/>
</linearGradient>
<linearGradient id="paint1_linear_41_850" x1="315.987" y1="265.805" x2="334.05" y2="240.136" gradientUnits="userSpaceOnUse">
<stop stop-color="white" stop-opacity="0"/>
<stop offset="1" stop-color="#D43500"/>
</linearGradient>
<linearGradient id="paint2_linear_41_850" x1="219.394" y1="308.725" x2="193.802" y2="324.016" gradientUnits="userSpaceOnUse">
<stop stop-color="#808080"/>
<stop offset="1" stop-color="white"/>
</linearGradient>
</defs>
</svg>
