<svg width="64" height="64" viewBox="0 0 64 64" fill="none" xmlns="http://www.w3.org/2000/svg">
<rect width="64" height="64" rx="12" fill="#FAFAFA"/>
<ellipse cx="44" cy="27.1429" rx="12" ry="12.1429" fill="#FEB137"/>
<path fill-rule="evenodd" clip-rule="evenodd" d="M51.0256 36.9883C54.0393 34.7824 56.0002 31.1943 56.0002 27.1429C56.0002 20.4365 50.6276 15 44.0002 15C40.0192 15 36.4911 16.9616 34.3081 19.9816C36.2829 18.5362 38.7099 17.6842 41.3335 17.6842C47.9609 17.6842 53.3335 23.1207 53.3335 29.8271C53.3335 32.5051 52.4768 34.9806 51.0256 36.9883Z" fill="#FEB137"/>
<path fill-rule="evenodd" clip-rule="evenodd" d="M38 27.143C38 27.143 38 27.143 38 27.143C38 21.7779 33.702 17.4287 28.4 17.4287C23.0981 17.4287 18.8 21.7779 18.8 27.143C18.8 27.1807 18.8002 27.2184 18.8007 27.256C15.3898 27.863 12.8 30.8434 12.8 34.4287C12.8 34.5732 12.8043 34.7167 12.8126 34.8592C10.0061 35.8718 8 38.5588 8 41.7144C8 45.7382 11.2619 49.0001 15.2857 49.0001H43.9143C47.9381 49.0001 51.2 45.7382 51.2 41.7144C51.2 38.5589 49.1939 35.8719 46.3875 34.8592C46.3958 34.7168 46.4 34.5732 46.4 34.4287C46.4 30.4049 43.1381 27.143 39.1143 27.143H38Z" fill="#3258E8"/>
<path fill-rule="evenodd" clip-rule="evenodd" d="M39.1143 27.143L38 27.143C38 21.7779 33.7019 17.4287 28.4 17.4287C25.6479 17.4287 23.1662 18.6006 21.4158 20.4781C22.4683 20.0768 23.6088 19.8573 24.7999 19.8573C30.1019 19.8573 34.3999 24.2065 34.3999 29.5716V29.5716H35.5142C39.538 29.5716 42.7999 32.8336 42.7999 36.8574C42.7999 37.0019 42.7957 37.1454 42.7874 37.2878C45.5938 38.3005 47.5999 40.9875 47.5999 44.143C47.5999 45.866 47.0018 47.4493 46.0019 48.6966C49.0083 47.799 51.1999 45.0126 51.1999 41.7144C51.1999 38.5589 49.1939 35.8719 46.3875 34.8592C46.3958 34.7168 46.4 34.5732 46.4 34.4287C46.4 30.4049 43.1381 27.143 39.1143 27.143ZM14.3979 29.8752C14.6596 29.797 14.9275 29.7332 15.2006 29.6846C15.2001 29.647 15.1999 29.6093 15.1999 29.5716C15.1999 29.383 15.2052 29.1956 15.2157 29.0097C14.9203 29.2754 14.6467 29.5649 14.3979 29.8752Z" fill="#2042BE"/>
</svg>
